<svg xmlns="http://www.w3.org/2000/svg" version="1.1" xmlns:xlink="http://www.w3.org/1999/xlink" xmlns:svgjs="http://svgjs.dev/svgjs" width="1000" height="560" preserveAspectRatio="none" viewBox="0 0 1000 560"><g mask="url(&quot;#SvgjsMask1006&quot;)" fill="none"><rect width="1000" height="560" x="0" y="0" fill="rgba(1, 6, 12, 1)"></rect><path d="M-73.57 446.96L-73.57 446.96" stroke="rgba(11, 41, 81, 1)" stroke-width="1.5"></path><path d="M-73.57 446.96L-78.57 541.47" stroke="rgba(11, 41, 81, 1)" stroke-width="1.5"></path><path d="M-73.57 446.96L75.36 467.84" stroke="rgba(11, 41, 81, 1)" stroke-width="1.5"></path><path d="M-73.57 446.96L48.98 576.9" stroke="rgba(11, 41, 81, 1)" stroke-width="1.5"></path><path d="M-73.57 446.96L171.92 410.67" stroke="rgba(11, 41, 81, 1)" stroke-width="1.5"></path><path d="M-78.57 541.47L-78.57 541.47" stroke="rgba(11, 41, 81, 1)" stroke-width="1.5"></path><path d="M-78.57 541.47L48.98 576.9" stroke="rgba(11, 41, 81, 1)" stroke-width="1.5"></path><path d="M-78.57 541.47L-71.9 705.09" stroke="rgba(11, 41, 81, 1)" stroke-width="1.5"></path><path d="M-78.57 541.47L75.36 467.84" stroke="rgba(11, 41, 81, 1)" stroke-width="1.5"></path><path d="M-71.9 705.09L-71.9 705.09" stroke="rgba(11, 41, 81, 1)" stroke-width="1.5"></path><path d="M-71.9 705.09L33.96 697.7" stroke="rgba(11, 41, 81, 1)" stroke-width="1.5"></path><path d="M75.36 467.84L75.36 467.84" stroke="rgba(11, 41, 81, 1)" stroke-width="1.5"></path><path d="M75.36 467.84L48.98 576.9" stroke="rgba(11, 41, 81, 1)" stroke-width="1.5"></path><path d="M75.36 467.84L171.92 410.67" stroke="rgba(11, 41, 81, 1)" stroke-width="1.5"></path><path d="M75.36 467.84L181.08 560.11" stroke="rgba(11, 41, 81, 1)" stroke-width="1.5"></path><path d="M48.98 576.9L48.98 576.9" stroke="rgba(11, 41, 81, 1)" stroke-width="1.5"></path><path d="M48.98 576.9L33.96 697.7" stroke="rgba(11, 41, 81, 1)" stroke-width="1.5"></path><path d="M33.96 697.7L33.96 697.7" stroke="rgba(11, 41, 81, 1)" stroke-width="1.5"></path><path d="M33.96 697.7L182.6 678.7" stroke="rgba(11, 41, 81, 1)" stroke-width="1.5"></path><path d="M33.96 697.7L-78.57 541.47" stroke="rgba(11, 41, 81, 1)" stroke-width="1.5"></path><path d="M171.48 323.63L171.48 323.63" stroke="rgba(11, 41, 81, 1)" stroke-width="1.5"></path><path d="M171.48 323.63L171.92 410.67" stroke="rgba(11, 41, 81, 1)" stroke-width="1.5"></path><path d="M171.48 323.63L320.75 319.83" stroke="rgba(11, 41, 81, 1)" stroke-width="1.5"></path><path d="M171.92 410.67L171.92 410.67" stroke="rgba(11, 41, 81, 1)" stroke-width="1.5"></path><path d="M181.08 560.11L181.08 560.11" stroke="rgba(11, 41, 81, 1)" stroke-width="1.5"></path><path d="M181.08 560.11L182.6 678.7" stroke="rgba(11, 41, 81, 1)" stroke-width="1.5"></path><path d="M181.08 560.11L48.98 576.9" stroke="rgba(11, 41, 81, 1)" stroke-width="1.5"></path><path d="M181.08 560.11L324.52 571.47" stroke="rgba(11, 41, 81, 1)" stroke-width="1.5"></path><path d="M181.08 560.11L171.92 410.67" stroke="rgba(11, 41, 81, 1)" stroke-width="1.5"></path><path d="M181.08 560.11L296.62 424.21" stroke="rgba(11, 41, 81, 1)" stroke-width="1.5"></path><path d="M182.6 678.7L182.6 678.7" stroke="rgba(11, 41, 81, 1)" stroke-width="1.5"></path><path d="M182.6 678.7L286.71 715.97" stroke="rgba(11, 41, 81, 1)" stroke-width="1.5"></path><path d="M320.75 319.83L320.75 319.83" stroke="rgba(11, 41, 81, 1)" stroke-width="1.5"></path><path d="M320.75 319.83L296.62 424.21" stroke="rgba(11, 41, 81, 1)" stroke-width="1.5"></path><path d="M320.75 319.83L468.34 316.28" stroke="rgba(11, 41, 81, 1)" stroke-width="1.5"></path><path d="M320.75 319.83L436.64 416.79" stroke="rgba(11, 41, 81, 1)" stroke-width="1.5"></path><path d="M320.75 319.83L171.92 410.67" stroke="rgba(11, 41, 81, 1)" stroke-width="1.5"></path><path d="M320.75 319.83L535.69 311.46" stroke="rgba(11, 41, 81, 1)" stroke-width="1.5"></path><path d="M296.62 424.21L296.62 424.21" stroke="rgba(11, 41, 81, 1)" stroke-width="1.5"></path><path d="M296.62 424.21L171.92 410.67" stroke="rgba(11, 41, 81, 1)" stroke-width="1.5"></path><path d="M296.62 424.21L436.64 416.79" stroke="rgba(11, 41, 81, 1)" stroke-width="1.5"></path><path d="M296.62 424.21L324.52 571.47" stroke="rgba(11, 41, 81, 1)" stroke-width="1.5"></path><path d="M324.52 571.47L324.52 571.47" stroke="rgba(11, 41, 81, 1)" stroke-width="1.5"></path><path d="M324.52 571.47L449.4 544.2" stroke="rgba(11, 41, 81, 1)" stroke-width="1.5"></path><path d="M324.52 571.47L286.71 715.97" stroke="rgba(11, 41, 81, 1)" stroke-width="1.5"></path><path d="M286.71 715.97L286.71 715.97" stroke="rgba(11, 41, 81, 1)" stroke-width="1.5"></path><path d="M468.34 316.28L468.34 316.28" stroke="rgba(11, 41, 81, 1)" stroke-width="1.5"></path><path d="M468.34 316.28L535.69 311.46" stroke="rgba(11, 41, 81, 1)" stroke-width="1.5"></path><path d="M468.34 316.28L436.64 416.79" stroke="rgba(11, 41, 81, 1)" stroke-width="1.5"></path><path d="M468.34 316.28L563.39 452.2" stroke="rgba(11, 41, 81, 1)" stroke-width="1.5"></path><path d="M468.34 316.28L590.3 191.96" stroke="rgba(11, 41, 81, 1)" stroke-width="1.5"></path><path d="M436.64 416.79L436.64 416.79" stroke="rgba(11, 41, 81, 1)" stroke-width="1.5"></path><path d="M436.64 416.79L449.4 544.2" stroke="rgba(11, 41, 81, 1)" stroke-width="1.5"></path><path d="M436.64 416.79L563.39 452.2" stroke="rgba(11, 41, 81, 1)" stroke-width="1.5"></path><path d="M436.64 416.79L535.69 311.46" stroke="rgba(11, 41, 81, 1)" stroke-width="1.5"></path><path d="M449.4 544.2L449.4 544.2" stroke="rgba(11, 41, 81, 1)" stroke-width="1.5"></path><path d="M449.4 544.2L536.39 575.22" stroke="rgba(11, 41, 81, 1)" stroke-width="1.5"></path><path d="M449.4 544.2L462.43 659.75" stroke="rgba(11, 41, 81, 1)" stroke-width="1.5"></path><path d="M462.43 659.75L462.43 659.75" stroke="rgba(11, 41, 81, 1)" stroke-width="1.5"></path><path d="M462.43 659.75L536.39 575.22" stroke="rgba(11, 41, 81, 1)" stroke-width="1.5"></path><path d="M462.43 659.75L574.9 672.22" stroke="rgba(11, 41, 81, 1)" stroke-width="1.5"></path><path d="M590.3 191.96L590.3 191.96" stroke="rgba(11, 41, 81, 1)" stroke-width="1.5"></path><path d="M590.3 191.96L693.78 200.6" stroke="rgba(11, 41, 81, 1)" stroke-width="1.5"></path><path d="M590.3 191.96L680.58 284.71" stroke="rgba(11, 41, 81, 1)" stroke-width="1.5"></path><path d="M590.3 191.96L535.69 311.46" stroke="rgba(11, 41, 81, 1)" stroke-width="1.5"></path><path d="M590.3 191.96L690.13 33.44" stroke="rgba(11, 41, 81, 1)" stroke-width="1.5"></path><path d="M590.3 191.96L671.49 435.99" stroke="rgba(11, 41, 81, 1)" stroke-width="1.5"></path><path d="M535.69 311.46L535.69 311.46" stroke="rgba(11, 41, 81, 1)" stroke-width="1.5"></path><path d="M535.69 311.46L563.39 452.2" stroke="rgba(11, 41, 81, 1)" stroke-width="1.5"></path><path d="M563.39 452.2L563.39 452.2" stroke="rgba(11, 41, 81, 1)" stroke-width="1.5"></path><path d="M563.39 452.2L671.49 435.99" stroke="rgba(11, 41, 81, 1)" stroke-width="1.5"></path><path d="M563.39 452.2L536.39 575.22" stroke="rgba(11, 41, 81, 1)" stroke-width="1.5"></path><path d="M563.39 452.2L449.4 544.2" stroke="rgba(11, 41, 81, 1)" stroke-width="1.5"></path><path d="M536.39 575.22L536.39 575.22" stroke="rgba(11, 41, 81, 1)" stroke-width="1.5"></path><path d="M536.39 575.22L574.9 672.22" stroke="rgba(11, 41, 81, 1)" stroke-width="1.5"></path><path d="M574.9 672.22L574.9 672.22" stroke="rgba(11, 41, 81, 1)" stroke-width="1.5"></path><path d="M574.9 672.22L683.47 667.72" stroke="rgba(11, 41, 81, 1)" stroke-width="1.5"></path><path d="M574.9 672.22L662.98 590.37" stroke="rgba(11, 41, 81, 1)" stroke-width="1.5"></path><path d="M574.9 672.22L449.4 544.2" stroke="rgba(11, 41, 81, 1)" stroke-width="1.5"></path><path d="M574.9 672.22L563.39 452.2" stroke="rgba(11, 41, 81, 1)" stroke-width="1.5"></path><path d="M691.69 -69L691.69 -69" stroke="rgba(11, 41, 81, 1)" stroke-width="1.5"></path><path d="M691.69 -69L690.13 33.44" stroke="rgba(11, 41, 81, 1)" stroke-width="1.5"></path><path d="M691.69 -69L816.35 -42.66" stroke="rgba(11, 41, 81, 1)" stroke-width="1.5"></path><path d="M691.69 -69L820.94 63.64" stroke="rgba(11, 41, 81, 1)" stroke-width="1.5"></path><path d="M690.13 33.44L690.13 33.44" stroke="rgba(11, 41, 81, 1)" stroke-width="1.5"></path><path d="M690.13 33.44L820.94 63.64" stroke="rgba(11, 41, 81, 1)" stroke-width="1.5"></path><path d="M690.13 33.44L816.35 -42.66" stroke="rgba(11, 41, 81, 1)" stroke-width="1.5"></path><path d="M690.13 33.44L693.78 200.6" stroke="rgba(11, 41, 81, 1)" stroke-width="1.5"></path><path d="M693.78 200.6L693.78 200.6" stroke="rgba(11, 41, 81, 1)" stroke-width="1.5"></path><path d="M693.78 200.6L680.58 284.71" stroke="rgba(11, 41, 81, 1)" stroke-width="1.5"></path><path d="M693.78 200.6L827.08 312.33" stroke="rgba(11, 41, 81, 1)" stroke-width="1.5"></path><path d="M693.78 200.6L820.94 63.64" stroke="rgba(11, 41, 81, 1)" stroke-width="1.5"></path><path d="M693.78 200.6L535.69 311.46" stroke="rgba(11, 41, 81, 1)" stroke-width="1.5"></path><path d="M680.58 284.71L680.58 284.71" stroke="rgba(11, 41, 81, 1)" stroke-width="1.5"></path><path d="M671.49 435.99L671.49 435.99" stroke="rgba(11, 41, 81, 1)" stroke-width="1.5"></path><path d="M671.49 435.99L785.19 465.41" stroke="rgba(11, 41, 81, 1)" stroke-width="1.5"></path><path d="M662.98 590.37L662.98 590.37" stroke="rgba(11, 41, 81, 1)" stroke-width="1.5"></path><path d="M662.98 590.37L683.47 667.72" stroke="rgba(11, 41, 81, 1)" stroke-width="1.5"></path><path d="M683.47 667.72L683.47 667.72" stroke="rgba(11, 41, 81, 1)" stroke-width="1.5"></path><path d="M683.47 667.72L839.69 674.13" stroke="rgba(11, 41, 81, 1)" stroke-width="1.5"></path><path d="M683.47 667.72L798.3 542.1" stroke="rgba(11, 41, 81, 1)" stroke-width="1.5"></path><path d="M683.47 667.72L536.39 575.22" stroke="rgba(11, 41, 81, 1)" stroke-width="1.5"></path><path d="M683.47 667.72L462.43 659.75" stroke="rgba(11, 41, 81, 1)" stroke-width="1.5"></path><path d="M816.35 -42.66L816.35 -42.66" stroke="rgba(11, 41, 81, 1)" stroke-width="1.5"></path><path d="M816.35 -42.66L820.94 63.64" stroke="rgba(11, 41, 81, 1)" stroke-width="1.5"></path><path d="M820.94 63.64L820.94 63.64" stroke="rgba(11, 41, 81, 1)" stroke-width="1.5"></path><path d="M820.94 63.64L966 166.83" stroke="rgba(11, 41, 81, 1)" stroke-width="1.5"></path><path d="M827.08 312.33L827.08 312.33" stroke="rgba(11, 41, 81, 1)" stroke-width="1.5"></path><path d="M827.08 312.33L680.58 284.71" stroke="rgba(11, 41, 81, 1)" stroke-width="1.5"></path><path d="M827.08 312.33L940.14 409.56" stroke="rgba(11, 41, 81, 1)" stroke-width="1.5"></path><path d="M827.08 312.33L785.19 465.41" stroke="rgba(11, 41, 81, 1)" stroke-width="1.5"></path><path d="M827.08 312.33L671.49 435.99" stroke="rgba(11, 41, 81, 1)" stroke-width="1.5"></path><path d="M785.19 465.41L785.19 465.41" stroke="rgba(11, 41, 81, 1)" stroke-width="1.5"></path><path d="M785.19 465.41L798.3 542.1" stroke="rgba(11, 41, 81, 1)" stroke-width="1.5"></path><path d="M798.3 542.1L798.3 542.1" stroke="rgba(11, 41, 81, 1)" stroke-width="1.5"></path><path d="M798.3 542.1L839.69 674.13" stroke="rgba(11, 41, 81, 1)" stroke-width="1.5"></path><path d="M798.3 542.1L662.98 590.37" stroke="rgba(11, 41, 81, 1)" stroke-width="1.5"></path><path d="M798.3 542.1L956.64 536.65" stroke="rgba(11, 41, 81, 1)" stroke-width="1.5"></path><path d="M798.3 542.1L671.49 435.99" stroke="rgba(11, 41, 81, 1)" stroke-width="1.5"></path><path d="M839.69 674.13L839.69 674.13" stroke="rgba(11, 41, 81, 1)" stroke-width="1.5"></path><path d="M839.69 674.13L956.64 536.65" stroke="rgba(11, 41, 81, 1)" stroke-width="1.5"></path><path d="M966 166.83L966 166.83" stroke="rgba(11, 41, 81, 1)" stroke-width="1.5"></path><path d="M966 166.83L1032.53 81.23" stroke="rgba(11, 41, 81, 1)" stroke-width="1.5"></path><path d="M966 166.83L1086.74 186.53" stroke="rgba(11, 41, 81, 1)" stroke-width="1.5"></path><path d="M966 166.83L1039.22 323.25" stroke="rgba(11, 41, 81, 1)" stroke-width="1.5"></path><path d="M940.14 409.56L940.14 409.56" stroke="rgba(11, 41, 81, 1)" stroke-width="1.5"></path><path d="M940.14 409.56L1031.53 465.83" stroke="rgba(11, 41, 81, 1)" stroke-width="1.5"></path><path d="M940.14 409.56L956.64 536.65" stroke="rgba(11, 41, 81, 1)" stroke-width="1.5"></path><path d="M940.14 409.56L1039.22 323.25" stroke="rgba(11, 41, 81, 1)" stroke-width="1.5"></path><path d="M956.64 536.65L956.64 536.65" stroke="rgba(11, 41, 81, 1)" stroke-width="1.5"></path><path d="M956.64 536.65L1031.53 465.83" stroke="rgba(11, 41, 81, 1)" stroke-width="1.5"></path><path d="M956.64 536.65L1067.68 535.51" stroke="rgba(11, 41, 81, 1)" stroke-width="1.5"></path><path d="M956.64 536.65L1045.71 678.6" stroke="rgba(11, 41, 81, 1)" stroke-width="1.5"></path><path d="M1068.68 -34.74L1068.68 -34.74" stroke="rgba(11, 41, 81, 1)" stroke-width="1.5"></path><path d="M1068.68 -34.74L1032.53 81.23" stroke="rgba(11, 41, 81, 1)" stroke-width="1.5"></path><path d="M1068.68 -34.74L1086.74 186.53" stroke="rgba(11, 41, 81, 1)" stroke-width="1.5"></path><path d="M1068.68 -34.74L966 166.83" stroke="rgba(11, 41, 81, 1)" stroke-width="1.5"></path><path d="M1068.68 -34.74L816.35 -42.66" stroke="rgba(11, 41, 81, 1)" stroke-width="1.5"></path><path d="M1068.68 -34.74L820.94 63.64" stroke="rgba(11, 41, 81, 1)" stroke-width="1.5"></path><path d="M1068.68 -34.74L1039.22 323.25" stroke="rgba(11, 41, 81, 1)" stroke-width="1.5"></path><path d="M1032.53 81.23L1032.53 81.23" stroke="rgba(11, 41, 81, 1)" stroke-width="1.5"></path><path d="M1032.53 81.23L1086.74 186.53" stroke="rgba(11, 41, 81, 1)" stroke-width="1.5"></path><path d="M1032.53 81.23L820.94 63.64" stroke="rgba(11, 41, 81, 1)" stroke-width="1.5"></path><path d="M1032.53 81.23L1039.22 323.25" stroke="rgba(11, 41, 81, 1)" stroke-width="1.5"></path><path d="M1086.74 186.53L1086.74 186.53" stroke="rgba(11, 41, 81, 1)" stroke-width="1.5"></path><path d="M1086.74 186.53L1039.22 323.25" stroke="rgba(11, 41, 81, 1)" stroke-width="1.5"></path><path d="M1039.22 323.25L1039.22 323.25" stroke="rgba(11, 41, 81, 1)" stroke-width="1.5"></path><path d="M1039.22 323.25L1031.53 465.83" stroke="rgba(11, 41, 81, 1)" stroke-width="1.5"></path><path d="M1039.22 323.25L827.08 312.33" stroke="rgba(11, 41, 81, 1)" stroke-width="1.5"></path><path d="M1031.53 465.83L1031.53 465.83" stroke="rgba(11, 41, 81, 1)" stroke-width="1.5"></path><path d="M1031.53 465.83L1067.68 535.51" stroke="rgba(11, 41, 81, 1)" stroke-width="1.5"></path><path d="M1067.68 535.51L1067.68 535.51" stroke="rgba(11, 41, 81, 1)" stroke-width="1.5"></path><path d="M1045.71 678.6L1045.71 678.6" stroke="rgba(11, 41, 81, 1)" stroke-width="1.5"></path><path d="M1045.71 678.6L1067.68 535.51" stroke="rgba(11, 41, 81, 1)" stroke-width="1.5"></path><path d="M1045.71 678.6L839.69 674.13" stroke="rgba(11, 41, 81, 1)" stroke-width="1.5"></path><path d="M1045.71 678.6L1031.53 465.83" stroke="rgba(11, 41, 81, 1)" stroke-width="1.5"></path><path d="M1045.71 678.6L798.3 542.1" stroke="rgba(11, 41, 81, 1)" stroke-width="1.5"></path><circle r="5" cx="-73.57" cy="446.96" fill="rgba(11, 41, 81, 1)"></circle><circle r="5" cx="-78.57" cy="541.47" fill="rgba(11, 41, 81, 1)"></circle><circle r="5" cx="-71.9" cy="705.09" fill="rgba(11, 41, 81, 1)"></circle><circle r="5" cx="75.36" cy="467.84" fill="rgba(11, 41, 81, 1)"></circle><circle r="5" cx="48.98" cy="576.9" fill="rgba(11, 41, 81, 1)"></circle><circle r="5" cx="33.96" cy="697.7" fill="rgba(11, 41, 81, 1)"></circle><circle r="5" cx="171.48" cy="323.63" fill="rgba(11, 41, 81, 1)"></circle><circle r="5" cx="171.92" cy="410.67" fill="rgba(11, 41, 81, 1)"></circle><circle r="5" cx="181.08" cy="560.11" fill="rgba(11, 41, 81, 1)"></circle><circle r="5" cx="182.6" cy="678.7" fill="rgba(11, 41, 81, 1)"></circle><circle r="5" cx="320.75" cy="319.83" fill="rgba(11, 41, 81, 1)"></circle><circle r="5" cx="296.62" cy="424.21" fill="rgba(11, 41, 81, 1)"></circle><circle r="5" cx="324.52" cy="571.47" fill="rgba(11, 41, 81, 1)"></circle><circle r="5" cx="286.71" cy="715.97" fill="rgba(11, 41, 81, 1)"></circle><circle r="5" cx="468.34" cy="316.28" fill="rgba(11, 41, 81, 1)"></circle><circle r="5" cx="436.64" cy="416.79" fill="rgba(11, 41, 81, 1)"></circle><circle r="5" cx="449.4" cy="544.2" fill="rgba(11, 41, 81, 1)"></circle><circle r="5" cx="462.43" cy="659.75" fill="rgba(11, 41, 81, 1)"></circle><circle r="5" cx="590.3" cy="191.96" fill="rgba(11, 41, 81, 1)"></circle><circle r="5" cx="535.69" cy="311.46" fill="rgba(11, 41, 81, 1)"></circle><circle r="5" cx="563.39" cy="452.2" fill="rgba(11, 41, 81, 1)"></circle><circle r="5" cx="536.39" cy="575.22" fill="rgba(11, 41, 81, 1)"></circle><circle r="5" cx="574.9" cy="672.22" fill="rgba(11, 41, 81, 1)"></circle><circle r="5" cx="691.69" cy="-69" fill="rgba(11, 41, 81, 1)"></circle><circle r="5" cx="690.13" cy="33.44" fill="rgba(11, 41, 81, 1)"></circle><circle r="5" cx="693.78" cy="200.6" fill="rgba(11, 41, 81, 1)"></circle><circle r="5" cx="680.58" cy="284.71" fill="rgba(11, 41, 81, 1)"></circle><circle r="5" cx="671.49" cy="435.99" fill="rgba(11, 41, 81, 1)"></circle><circle r="5" cx="662.98" cy="590.37" fill="rgba(11, 41, 81, 1)"></circle><circle r="5" cx="683.47" cy="667.72" fill="rgba(11, 41, 81, 1)"></circle><circle r="5" cx="816.35" cy="-42.66" fill="rgba(11, 41, 81, 1)"></circle><circle r="5" cx="820.94" cy="63.64" fill="rgba(11, 41, 81, 1)"></circle><circle r="5" cx="827.08" cy="312.33" fill="rgba(11, 41, 81, 1)"></circle><circle r="5" cx="785.19" cy="465.41" fill="rgba(11, 41, 81, 1)"></circle><circle r="5" cx="798.3" cy="542.1" fill="rgba(11, 41, 81, 1)"></circle><circle r="5" cx="839.69" cy="674.13" fill="rgba(11, 41, 81, 1)"></circle><circle r="5" cx="966" cy="166.83" fill="rgba(11, 41, 81, 1)"></circle><circle r="5" cx="940.14" cy="409.56" fill="rgba(11, 41, 81, 1)"></circle><circle r="5" cx="956.64" cy="536.65" fill="rgba(11, 41, 81, 1)"></circle><circle r="5" cx="1068.68" cy="-34.74" fill="rgba(11, 41, 81, 1)"></circle><circle r="5" cx="1032.53" cy="81.23" fill="rgba(11, 41, 81, 1)"></circle><circle r="5" cx="1086.74" cy="186.53" fill="rgba(11, 41, 81, 1)"></circle><circle r="5" cx="1039.22" cy="323.25" fill="rgba(11, 41, 81, 1)"></circle><circle r="5" cx="1031.53" cy="465.83" fill="rgba(11, 41, 81, 1)"></circle><circle r="5" cx="1067.68" cy="535.51" fill="rgba(11, 41, 81, 1)"></circle><circle r="5" cx="1045.71" cy="678.6" fill="rgba(11, 41, 81, 1)"></circle><path d="M89.71 534.19L89.71 534.19" stroke="hsl(207.79999999999995, 83.5%, 71.4%)" stroke-width="1.5"></path><path d="M89.71 534.19L192.41 533.1" stroke="hsl(207.79999999999995, 83.5%, 71.4%)" stroke-width="1.5"></path><path d="M89.71 534.19L91.4 664.59" stroke="hsl(207.79999999999995, 83.5%, 71.4%)" stroke-width="1.5"></path><path d="M192.41 533.1L192.41 533.1" stroke="hsl(207.79999999999995, 83.5%, 71.4%)" stroke-width="1.5"></path><path d="M192.41 533.1L182.84 438.89" stroke="hsl(207.79999999999995, 83.5%, 71.4%)" stroke-width="1.5"></path><path d="M326.03 572.22L326.03 572.22" stroke="hsl(207.79999999999995, 83.5%, 71.4%)" stroke-width="1.5"></path><path d="M326.03 572.22L414.74 564.05" stroke="hsl(207.79999999999995, 83.5%, 71.4%)" stroke-width="1.5"></path><path d="M326.03 572.22L332.07 662.59" stroke="hsl(207.79999999999995, 83.5%, 71.4%)" stroke-width="1.5"></path><path d="M326.03 572.22L192.41 533.1" stroke="hsl(207.79999999999995, 83.5%, 71.4%)" stroke-width="1.5"></path><path d="M326.03 572.22L443.75 683.84" stroke="hsl(207.79999999999995, 83.5%, 71.4%)" stroke-width="1.5"></path><path d="M713.72 451.1L713.72 451.1" stroke="hsl(207.79999999999995, 83.5%, 71.4%)" stroke-width="1.5"></path><path d="M713.72 451.1L791.21 447.69" stroke="hsl(207.79999999999995, 83.5%, 71.4%)" stroke-width="1.5"></path><path d="M713.72 451.1L713.41 339.03" stroke="hsl(207.79999999999995, 83.5%, 71.4%)" stroke-width="1.5"></path><path d="M713.72 451.1L587.88 453.38" stroke="hsl(207.79999999999995, 83.5%, 71.4%)" stroke-width="1.5"></path><path d="M713.72 451.1L788.12 557.11" stroke="hsl(207.79999999999995, 83.5%, 71.4%)" stroke-width="1.5"></path><path d="M713.72 451.1L712.1 592.22" stroke="hsl(207.79999999999995, 83.5%, 71.4%)" stroke-width="1.5"></path><path d="M713.72 451.1L821.82 332.19" stroke="hsl(207.79999999999995, 83.5%, 71.4%)" stroke-width="1.5"></path><path d="M823.14 709.5L823.14 709.5" stroke="hsl(207.79999999999995, 83.5%, 71.4%)" stroke-width="1.5"></path><path d="M823.14 709.5L697.73 707.48" stroke="hsl(207.79999999999995, 83.5%, 71.4%)" stroke-width="1.5"></path><path d="M823.14 709.5L966.82 706.36" stroke="hsl(207.79999999999995, 83.5%, 71.4%)" stroke-width="1.5"></path><path d="M823.14 709.5L788.12 557.11" stroke="hsl(207.79999999999995, 83.5%, 71.4%)" stroke-width="1.5"></path><path d="M906.88 -80.02L906.88 -80.02" stroke="hsl(207.79999999999995, 83.5%, 71.4%)" stroke-width="1.5"></path><path d="M906.88 -80.02L925.89 66.41" stroke="hsl(207.79999999999995, 83.5%, 71.4%)" stroke-width="1.5"></path><path d="M906.88 -80.02L1090.84 -66.74" stroke="hsl(207.79999999999995, 83.5%, 71.4%)" stroke-width="1.5"></path><path d="M906.88 -80.02L1064.73 51.29" stroke="hsl(207.79999999999995, 83.5%, 71.4%)" stroke-width="1.5"></path><path d="M957.04 158.25L957.04 158.25" stroke="hsl(207.79999999999995, 83.5%, 71.4%)" stroke-width="1.5"></path><path d="M957.04 158.25L925.89 66.41" stroke="hsl(207.79999999999995, 83.5%, 71.4%)" stroke-width="1.5"></path><path d="M957.04 158.25L1074.22 174.63" stroke="hsl(207.79999999999995, 83.5%, 71.4%)" stroke-width="1.5"></path><path d="M957.04 158.25L835.76 181.42" stroke="hsl(207.79999999999995, 83.5%, 71.4%)" stroke-width="1.5"></path><path d="M957.04 158.25L958.18 303.94" stroke="hsl(207.79999999999995, 83.5%, 71.4%)" stroke-width="1.5"></path><path d="M957.04 158.25L1064.73 51.29" stroke="hsl(207.79999999999995, 83.5%, 71.4%)" stroke-width="1.5"></path><path d="M957.04 158.25L1048.76 286.77" stroke="hsl(207.79999999999995, 83.5%, 71.4%)" stroke-width="1.5"></path><path d="M926.39 412.49L926.39 412.49" stroke="hsl(207.79999999999995, 83.5%, 71.4%)" stroke-width="1.5"></path><path d="M926.39 412.49L958.18 303.94" stroke="hsl(207.79999999999995, 83.5%, 71.4%)" stroke-width="1.5"></path><path d="M926.39 412.49L1051.21 435.55" stroke="hsl(207.79999999999995, 83.5%, 71.4%)" stroke-width="1.5"></path><path d="M926.39 412.49L957.67 539.28" stroke="hsl(207.79999999999995, 83.5%, 71.4%)" stroke-width="1.5"></path><path d="M926.39 412.49L821.82 332.19" stroke="hsl(207.79999999999995, 83.5%, 71.4%)" stroke-width="1.5"></path><path d="M926.39 412.49L791.21 447.69" stroke="hsl(207.79999999999995, 83.5%, 71.4%)" stroke-width="1.5"></path><path d="M-43.93 448.13L-43.93 448.13" stroke="hsl(207.79999999999995, 83.5%, 71.4%)" stroke-width="1.5"></path><path d="M-43.93 448.13L-90.44 534.06" stroke="hsl(207.79999999999995, 83.5%, 71.4%)" stroke-width="1.5"></path><path d="M-43.93 448.13L89.71 534.19" stroke="hsl(207.79999999999995, 83.5%, 71.4%)" stroke-width="1.5"></path><path d="M-43.93 448.13L182.84 438.89" stroke="hsl(207.79999999999995, 83.5%, 71.4%)" stroke-width="1.5"></path><path d="M-90.44 534.06L-90.44 534.06" stroke="hsl(207.79999999999995, 83.5%, 71.4%)" stroke-width="1.5"></path><path d="M-90.44 534.06L-68.39 709.7" stroke="hsl(207.79999999999995, 83.5%, 71.4%)" stroke-width="1.5"></path><path d="M-90.44 534.06L89.71 534.19" stroke="hsl(207.79999999999995, 83.5%, 71.4%)" stroke-width="1.5"></path><path d="M-90.44 534.06L91.4 664.59" stroke="hsl(207.79999999999995, 83.5%, 71.4%)" stroke-width="1.5"></path><path d="M-90.44 534.06L192.41 533.1" stroke="hsl(207.79999999999995, 83.5%, 71.4%)" stroke-width="1.5"></path><path d="M-68.39 709.7L-68.39 709.7" stroke="hsl(207.79999999999995, 83.5%, 71.4%)" stroke-width="1.5"></path><path d="M-68.39 709.7L91.4 664.59" stroke="hsl(207.79999999999995, 83.5%, 71.4%)" stroke-width="1.5"></path><path d="M-68.39 709.7L156.89 696.31" stroke="hsl(207.79999999999995, 83.5%, 71.4%)" stroke-width="1.5"></path><path d="M-68.39 709.7L89.71 534.19" stroke="hsl(207.79999999999995, 83.5%, 71.4%)" stroke-width="1.5"></path><path d="M-68.39 709.7L-43.93 448.13" stroke="hsl(207.79999999999995, 83.5%, 71.4%)" stroke-width="1.5"></path><path d="M91.4 664.59L91.4 664.59" stroke="hsl(207.79999999999995, 83.5%, 71.4%)" stroke-width="1.5"></path><path d="M91.4 664.59L156.89 696.31" stroke="hsl(207.79999999999995, 83.5%, 71.4%)" stroke-width="1.5"></path><path d="M182.84 438.89L182.84 438.89" stroke="hsl(207.79999999999995, 83.5%, 71.4%)" stroke-width="1.5"></path><path d="M182.84 438.89L89.71 534.19" stroke="hsl(207.79999999999995, 83.5%, 71.4%)" stroke-width="1.5"></path><path d="M182.84 438.89L326.03 572.22" stroke="hsl(207.79999999999995, 83.5%, 71.4%)" stroke-width="1.5"></path><path d="M156.89 696.31L156.89 696.31" stroke="hsl(207.79999999999995, 83.5%, 71.4%)" stroke-width="1.5"></path><path d="M156.89 696.31L192.41 533.1" stroke="hsl(207.79999999999995, 83.5%, 71.4%)" stroke-width="1.5"></path><path d="M156.89 696.31L89.71 534.19" stroke="hsl(207.79999999999995, 83.5%, 71.4%)" stroke-width="1.5"></path><path d="M332.07 662.59L332.07 662.59" stroke="hsl(207.79999999999995, 83.5%, 71.4%)" stroke-width="1.5"></path><path d="M332.07 662.59L443.75 683.84" stroke="hsl(207.79999999999995, 83.5%, 71.4%)" stroke-width="1.5"></path><path d="M332.07 662.59L414.74 564.05" stroke="hsl(207.79999999999995, 83.5%, 71.4%)" stroke-width="1.5"></path><path d="M332.07 662.59L156.89 696.31" stroke="hsl(207.79999999999995, 83.5%, 71.4%)" stroke-width="1.5"></path><path d="M407.01 422.17L407.01 422.17" stroke="hsl(207.79999999999995, 83.5%, 71.4%)" stroke-width="1.5"></path><path d="M407.01 422.17L414.74 564.05" stroke="hsl(207.79999999999995, 83.5%, 71.4%)" stroke-width="1.5"></path><path d="M407.01 422.17L326.03 572.22" stroke="hsl(207.79999999999995, 83.5%, 71.4%)" stroke-width="1.5"></path><path d="M407.01 422.17L587.88 453.38" stroke="hsl(207.79999999999995, 83.5%, 71.4%)" stroke-width="1.5"></path><path d="M407.01 422.17L182.84 438.89" stroke="hsl(207.79999999999995, 83.5%, 71.4%)" stroke-width="1.5"></path><path d="M407.01 422.17L573.87 593.01" stroke="hsl(207.79999999999995, 83.5%, 71.4%)" stroke-width="1.5"></path><path d="M407.01 422.17L192.41 533.1" stroke="hsl(207.79999999999995, 83.5%, 71.4%)" stroke-width="1.5"></path><path d="M414.74 564.05L414.74 564.05" stroke="hsl(207.79999999999995, 83.5%, 71.4%)" stroke-width="1.5"></path><path d="M414.74 564.05L443.75 683.84" stroke="hsl(207.79999999999995, 83.5%, 71.4%)" stroke-width="1.5"></path><path d="M443.75 683.84L443.75 683.84" stroke="hsl(207.79999999999995, 83.5%, 71.4%)" stroke-width="1.5"></path><path d="M443.75 683.84L531.64 673.64" stroke="hsl(207.79999999999995, 83.5%, 71.4%)" stroke-width="1.5"></path><path d="M443.75 683.84L573.87 593.01" stroke="hsl(207.79999999999995, 83.5%, 71.4%)" stroke-width="1.5"></path><path d="M443.75 683.84L697.73 707.48" stroke="hsl(207.79999999999995, 83.5%, 71.4%)" stroke-width="1.5"></path><path d="M587.88 453.38L587.88 453.38" stroke="hsl(207.79999999999995, 83.5%, 71.4%)" stroke-width="1.5"></path><path d="M587.88 453.38L573.87 593.01" stroke="hsl(207.79999999999995, 83.5%, 71.4%)" stroke-width="1.5"></path><path d="M587.88 453.38L713.41 339.03" stroke="hsl(207.79999999999995, 83.5%, 71.4%)" stroke-width="1.5"></path><path d="M573.87 593.01L573.87 593.01" stroke="hsl(207.79999999999995, 83.5%, 71.4%)" stroke-width="1.5"></path><path d="M573.87 593.01L531.64 673.64" stroke="hsl(207.79999999999995, 83.5%, 71.4%)" stroke-width="1.5"></path><path d="M573.87 593.01L712.1 592.22" stroke="hsl(207.79999999999995, 83.5%, 71.4%)" stroke-width="1.5"></path><path d="M531.64 673.64L531.64 673.64" stroke="hsl(207.79999999999995, 83.5%, 71.4%)" stroke-width="1.5"></path><path d="M531.64 673.64L414.74 564.05" stroke="hsl(207.79999999999995, 83.5%, 71.4%)" stroke-width="1.5"></path><path d="M531.64 673.64L697.73 707.48" stroke="hsl(207.79999999999995, 83.5%, 71.4%)" stroke-width="1.5"></path><path d="M713.41 339.03L713.41 339.03" stroke="hsl(207.79999999999995, 83.5%, 71.4%)" stroke-width="1.5"></path><path d="M713.41 339.03L821.82 332.19" stroke="hsl(207.79999999999995, 83.5%, 71.4%)" stroke-width="1.5"></path><path d="M712.1 592.22L712.1 592.22" stroke="hsl(207.79999999999995, 83.5%, 71.4%)" stroke-width="1.5"></path><path d="M712.1 592.22L788.12 557.11" stroke="hsl(207.79999999999995, 83.5%, 71.4%)" stroke-width="1.5"></path><path d="M712.1 592.22L697.73 707.48" stroke="hsl(207.79999999999995, 83.5%, 71.4%)" stroke-width="1.5"></path><path d="M712.1 592.22L823.14 709.5" stroke="hsl(207.79999999999995, 83.5%, 71.4%)" stroke-width="1.5"></path><path d="M697.73 707.48L697.73 707.48" stroke="hsl(207.79999999999995, 83.5%, 71.4%)" stroke-width="1.5"></path><path d="M697.73 707.48L573.87 593.01" stroke="hsl(207.79999999999995, 83.5%, 71.4%)" stroke-width="1.5"></path><path d="M835.76 181.42L835.76 181.42" stroke="hsl(207.79999999999995, 83.5%, 71.4%)" stroke-width="1.5"></path><path d="M835.76 181.42L925.89 66.41" stroke="hsl(207.79999999999995, 83.5%, 71.4%)" stroke-width="1.5"></path><path d="M835.76 181.42L821.82 332.19" stroke="hsl(207.79999999999995, 83.5%, 71.4%)" stroke-width="1.5"></path><path d="M835.76 181.42L958.18 303.94" stroke="hsl(207.79999999999995, 83.5%, 71.4%)" stroke-width="1.5"></path><path d="M835.76 181.42L713.41 339.03" stroke="hsl(207.79999999999995, 83.5%, 71.4%)" stroke-width="1.5"></path><path d="M821.82 332.19L821.82 332.19" stroke="hsl(207.79999999999995, 83.5%, 71.4%)" stroke-width="1.5"></path><path d="M821.82 332.19L791.21 447.69" stroke="hsl(207.79999999999995, 83.5%, 71.4%)" stroke-width="1.5"></path><path d="M791.21 447.69L791.21 447.69" stroke="hsl(207.79999999999995, 83.5%, 71.4%)" stroke-width="1.5"></path><path d="M791.21 447.69L788.12 557.11" stroke="hsl(207.79999999999995, 83.5%, 71.4%)" stroke-width="1.5"></path><path d="M791.21 447.69L713.41 339.03" stroke="hsl(207.79999999999995, 83.5%, 71.4%)" stroke-width="1.5"></path><path d="M788.12 557.11L788.12 557.11" stroke="hsl(207.79999999999995, 83.5%, 71.4%)" stroke-width="1.5"></path><path d="M925.89 66.41L925.89 66.41" stroke="hsl(207.79999999999995, 83.5%, 71.4%)" stroke-width="1.5"></path><path d="M958.18 303.94L958.18 303.94" stroke="hsl(207.79999999999995, 83.5%, 71.4%)" stroke-width="1.5"></path><path d="M958.18 303.94L1048.76 286.77" stroke="hsl(207.79999999999995, 83.5%, 71.4%)" stroke-width="1.5"></path><path d="M958.18 303.94L821.82 332.19" stroke="hsl(207.79999999999995, 83.5%, 71.4%)" stroke-width="1.5"></path><path d="M957.67 539.28L957.67 539.28" stroke="hsl(207.79999999999995, 83.5%, 71.4%)" stroke-width="1.5"></path><path d="M957.67 539.28L1032.18 558.13" stroke="hsl(207.79999999999995, 83.5%, 71.4%)" stroke-width="1.5"></path><path d="M957.67 539.28L1051.21 435.55" stroke="hsl(207.79999999999995, 83.5%, 71.4%)" stroke-width="1.5"></path><path d="M966.82 706.36L966.82 706.36" stroke="hsl(207.79999999999995, 83.5%, 71.4%)" stroke-width="1.5"></path><path d="M966.82 706.36L1065.8 705.97" stroke="hsl(207.79999999999995, 83.5%, 71.4%)" stroke-width="1.5"></path><path d="M966.82 706.36L1032.18 558.13" stroke="hsl(207.79999999999995, 83.5%, 71.4%)" stroke-width="1.5"></path><path d="M966.82 706.36L957.67 539.28" stroke="hsl(207.79999999999995, 83.5%, 71.4%)" stroke-width="1.5"></path><path d="M966.82 706.36L788.12 557.11" stroke="hsl(207.79999999999995, 83.5%, 71.4%)" stroke-width="1.5"></path><path d="M1090.84 -66.74L1090.84 -66.74" stroke="hsl(207.79999999999995, 83.5%, 71.4%)" stroke-width="1.5"></path><path d="M1090.84 -66.74L1064.73 51.29" stroke="hsl(207.79999999999995, 83.5%, 71.4%)" stroke-width="1.5"></path><path d="M1090.84 -66.74L925.89 66.41" stroke="hsl(207.79999999999995, 83.5%, 71.4%)" stroke-width="1.5"></path><path d="M1090.84 -66.74L1074.22 174.63" stroke="hsl(207.79999999999995, 83.5%, 71.4%)" stroke-width="1.5"></path><path d="M1090.84 -66.74L957.04 158.25" stroke="hsl(207.79999999999995, 83.5%, 71.4%)" stroke-width="1.5"></path><path d="M1090.84 -66.74L835.76 181.42" stroke="hsl(207.79999999999995, 83.5%, 71.4%)" stroke-width="1.5"></path><path d="M1064.73 51.29L1064.73 51.29" stroke="hsl(207.79999999999995, 83.5%, 71.4%)" stroke-width="1.5"></path><path d="M1064.73 51.29L1074.22 174.63" stroke="hsl(207.79999999999995, 83.5%, 71.4%)" stroke-width="1.5"></path><path d="M1064.73 51.29L925.89 66.41" stroke="hsl(207.79999999999995, 83.5%, 71.4%)" stroke-width="1.5"></path><path d="M1074.22 174.63L1074.22 174.63" stroke="hsl(207.79999999999995, 83.5%, 71.4%)" stroke-width="1.5"></path><path d="M1074.22 174.63L1048.76 286.77" stroke="hsl(207.79999999999995, 83.5%, 71.4%)" stroke-width="1.5"></path><path d="M1048.76 286.77L1048.76 286.77" stroke="hsl(207.79999999999995, 83.5%, 71.4%)" stroke-width="1.5"></path><path d="M1048.76 286.77L1051.21 435.55" stroke="hsl(207.79999999999995, 83.5%, 71.4%)" stroke-width="1.5"></path><path d="M1048.76 286.77L926.39 412.49" stroke="hsl(207.79999999999995, 83.5%, 71.4%)" stroke-width="1.5"></path><path d="M1048.76 286.77L821.82 332.19" stroke="hsl(207.79999999999995, 83.5%, 71.4%)" stroke-width="1.5"></path><path d="M1051.21 435.55L1051.21 435.55" stroke="hsl(207.79999999999995, 83.5%, 71.4%)" stroke-width="1.5"></path><path d="M1051.21 435.55L1032.18 558.13" stroke="hsl(207.79999999999995, 83.5%, 71.4%)" stroke-width="1.5"></path><path d="M1051.21 435.55L958.18 303.94" stroke="hsl(207.79999999999995, 83.5%, 71.4%)" stroke-width="1.5"></path><path d="M1032.18 558.13L1032.18 558.13" stroke="hsl(207.79999999999995, 83.5%, 71.4%)" stroke-width="1.5"></path><path d="M1032.18 558.13L1065.8 705.97" stroke="hsl(207.79999999999995, 83.5%, 71.4%)" stroke-width="1.5"></path><path d="M1032.18 558.13L926.39 412.49" stroke="hsl(207.79999999999995, 83.5%, 71.4%)" stroke-width="1.5"></path><path d="M1065.8 705.97L1065.8 705.97" stroke="hsl(207.79999999999995, 83.5%, 71.4%)" stroke-width="1.5"></path><path d="M1065.8 705.97L957.67 539.28" stroke="hsl(207.79999999999995, 83.5%, 71.4%)" stroke-width="1.5"></path><circle r="25" cx="89.71" cy="534.19" fill="url(&quot;#SvgjsRadialGradient1007&quot;)"></circle><circle r="25" cx="192.41" cy="533.1" fill="url(&quot;#SvgjsRadialGradient1007&quot;)"></circle><circle r="25" cx="326.03" cy="572.22" fill="url(&quot;#SvgjsRadialGradient1007&quot;)"></circle><circle r="25" cx="713.72" cy="451.1" fill="url(&quot;#SvgjsRadialGradient1007&quot;)"></circle><circle r="25" cx="823.14" cy="709.5" fill="url(&quot;#SvgjsRadialGradient1007&quot;)"></circle><circle r="25" cx="906.88" cy="-80.02" fill="url(&quot;#SvgjsRadialGradient1007&quot;)"></circle><circle r="25" cx="957.04" cy="158.25" fill="url(&quot;#SvgjsRadialGradient1007&quot;)"></circle><circle r="25" cx="926.39" cy="412.49" fill="url(&quot;#SvgjsRadialGradient1007&quot;)"></circle><circle r="5" cx="-43.93" cy="448.13" fill="#96c9f6"></circle><circle r="5" cx="-90.44" cy="534.06" fill="#96c9f6"></circle><circle r="5" cx="-68.39" cy="709.7" fill="#96c9f6"></circle><circle r="5" cx="91.4" cy="664.59" fill="#96c9f6"></circle><circle r="5" cx="182.84" cy="438.89" fill="#96c9f6"></circle><circle r="5" cx="156.89" cy="696.31" fill="#96c9f6"></circle><circle r="5" cx="332.07" cy="662.59" fill="#96c9f6"></circle><circle r="5" cx="407.01" cy="422.17" fill="#96c9f6"></circle><circle r="5" cx="414.74" cy="564.05" fill="#96c9f6"></circle><circle r="5" cx="443.75" cy="683.84" fill="#96c9f6"></circle><circle r="5" cx="587.88" cy="453.38" fill="#96c9f6"></circle><circle r="5" cx="573.87" cy="593.01" fill="#96c9f6"></circle><circle r="5" cx="531.64" cy="673.64" fill="#96c9f6"></circle><circle r="5" cx="713.41" cy="339.03" fill="#96c9f6"></circle><circle r="5" cx="712.1" cy="592.22" fill="#96c9f6"></circle><circle r="5" cx="697.73" cy="707.48" fill="#96c9f6"></circle><circle r="5" cx="835.76" cy="181.42" fill="#96c9f6"></circle><circle r="5" cx="821.82" cy="332.19" fill="#96c9f6"></circle><circle r="5" cx="791.21" cy="447.69" fill="#96c9f6"></circle><circle r="5" cx="788.12" cy="557.11" fill="#96c9f6"></circle><circle r="5" cx="925.89" cy="66.41" fill="#96c9f6"></circle><circle r="5" cx="958.18" cy="303.94" fill="#96c9f6"></circle><circle r="5" cx="957.67" cy="539.28" fill="#96c9f6"></circle><circle r="5" cx="966.82" cy="706.36" fill="#96c9f6"></circle><circle r="5" cx="1090.84" cy="-66.74" fill="#96c9f6"></circle><circle r="5" cx="1064.73" cy="51.29" fill="#96c9f6"></circle><circle r="5" cx="1074.22" cy="174.63" fill="#96c9f6"></circle><circle r="5" cx="1048.76" cy="286.77" fill="#96c9f6"></circle><circle r="5" cx="1051.21" cy="435.55" fill="#96c9f6"></circle><circle r="5" cx="1032.18" cy="558.13" fill="#96c9f6"></circle><circle r="5" cx="1065.8" cy="705.97" fill="#96c9f6"></circle></g><defs><mask id="SvgjsMask1006"><rect width="1000" height="560" fill="#ffffff"></rect></mask><radialGradient id="SvgjsRadialGradient1007"><stop stop-color="#ffffff" offset="0.1"></stop><stop stop-color="rgba(44, 147, 236, 1)" offset="0.2"></stop><stop stop-color="rgba(44, 147, 236, 0)" offset="1"></stop></radialGradient></defs></svg>